<svg version="1.2" xmlns="http://www.w3.org/2000/svg" viewBox="0 0 37 15" width="37" height="15">
	<title>arrow-svg</title>
	<style>
		.s0 { fill: #ffffff }
	</style>
	<g id="Group_871">
		<path id="chevron-left" class="s0" d="m7.8 14.5q-0.1 0-0.2 0q0 0-0.1 0q-0.1-0.1-0.1-0.1l-6.9-6.9q0 0-0.1-0.1q0-0.1 0-0.2q0 0 0-0.1q0.1-0.1 0.1-0.1l6.9-6.9q0 0 0.1-0.1q0.1 0 0.1 0q0.1 0 0.2 0q0.1 0.1 0.1 0.1l0.2 0.2q0.1 0.1 0.1 0.2q0.1 0 0.1 0.1q0 0.1-0.1 0.2q0 0-0.1 0.1l-6.3 6.3l6.3 6.4q0.1 0 0.1 0.1q0.1 0.1 0.1 0.2q0 0-0.1 0.1q0 0.1-0.1 0.1l-0.2 0.3q0 0-0.1 0.1z"/>
		<path id="Rectangle_21" class="s0" d="m37 6.7v1.1h-35.2v-1.1z"/>
	</g>
</svg>