<svg width="89" height="88" viewBox="0 0 89 88" fill="none" xmlns="http://www.w3.org/2000/svg">
    <rect x="0.363281" y="0.15625" width="87.6862" height="87.6862" rx="9.02569" fill="#003049"/>
    <path d="M21.0603 45.959V74.3086H36.088V69.8003H26.7465V45.959H21.0603Z" fill="white"/>
    <path d="M74.6687 60.0525C74.6687 51.5639 68.2514 45.5528 60.1689 45.5528C52.1677 45.5528 45.6286 51.5639 45.6286 60.0525C45.6286 68.5818 52.1677 74.5929 60.1689 74.5929C68.2108 74.5929 74.6687 68.5818 74.6687 60.0525ZM51.4772 60.0525C51.4772 54.2851 55.0108 50.6704 60.1689 50.6704C65.2865 50.6704 68.82 54.2851 68.82 60.0525C68.82 65.8199 65.2865 69.516 60.1689 69.516C55.0108 69.516 51.4772 65.8199 51.4772 60.0525Z"
          fill="#FF6B00"/>
    <path d="M42.3249 27.2791C42.3249 18.7905 35.9077 12.7794 27.8252 12.7794C19.8239 12.7794 13.2848 18.7905 13.2848 27.2791C13.2848 35.8084 19.8239 41.8195 27.8252 41.8195C35.8671 41.8195 42.3249 35.8084 42.3249 27.2791ZM19.1335 27.2791C19.1335 21.5117 22.667 17.8969 27.8252 17.8969C32.9427 17.8969 36.4763 21.5117 36.4763 27.2791C36.4763 33.0465 32.9427 36.7425 27.8252 36.7425C22.667 36.7425 19.1335 33.0465 19.1335 27.2791Z"
          fill="#FF6B00"/>
    <path d="M60.8377 12.82C52.6334 12.82 46.3786 18.8311 46.3786 27.3197C46.3786 35.8084 52.6334 41.7788 60.8783 41.7788C68.4328 41.7788 73.591 36.4988 74.7282 30.7314V25.7763H59.3755V30.1222H69.1233C68.2703 34.1431 65.4679 36.6613 61.0814 36.6613C55.8014 36.6613 52.2272 33.0871 52.2272 27.3197C52.2272 21.6742 55.7608 18.0594 60.8377 18.0594C63.8433 18.0594 66.199 19.3185 67.4986 21.7148H74.0378C72.2101 16.0286 67.1737 12.82 60.8377 12.82Z"
          fill="white"/>
</svg>
