<svg xmlns="http://www.w3.org/2000/svg" width="14.484" height="36.605" viewBox="0 0 14.484 36.605">
  <g id="Group_871" data-name="Group 871" transform="translate(-971 951.605) rotate(-90)">
    <path id="chevron-left" d="M14.457,47.32l.23-.23a.39.39,0,0,0,0-.551L8.339,40.192l6.347-6.347a.39.39,0,0,0,0-.551l-.23-.23a.39.39,0,0,0-.551,0L7.054,39.917a.39.39,0,0,0,0,.551l6.852,6.852a.39.39,0,0,0,.551,0Z" transform="translate(908.06 938.049)" fill="#fff"/>
    <rect id="Rectangle_21" data-name="Rectangle 21" width="35.211" height="1.174" rx="0.587" transform="translate(916.394 977.655)" fill="#fff"/>
  </g>
</svg>
