<?xml version="1.0" encoding="utf-8"?>
<!-- Generator: Adobe Illustrator 26.0.1, SVG Export Plug-In . SVG Version: 6.00 Build 0)  -->
<svg version="1.1" id="Layer_1" xmlns="http://www.w3.org/2000/svg" xmlns:xlink="http://www.w3.org/1999/xlink" x="0px" y="0px"
	 viewBox="0 0 1869.03 841.04" style="enable-background:new 0 0 1869.03 841.04;" xml:space="preserve">
<style type="text/css">
	.st0{fill-rule:evenodd;clip-rule:evenodd;fill:#3585F1;}
</style>
<g>
	<path class="st0" d="M743.36,339.15c26.01,0,50.76,4.83,74.25,14.49l1.95,0.8v51.58l-4.36-1.84c-23.68-10.01-45.25-15-64.72-15
		c-24.2,0-42.06,6-53.74,17.86c-11.67,11.86-17.6,30.97-17.6,57.47c0,27.82,5.79,47.94,17.2,60.41
		c11.33,12.42,29.78,18.7,55.56,18.7c21.03,0,42.24-5.11,63.62-15.37l4.49-2.16v51.73l-1.86,0.83
		c-23.14,10.33-47.92,15.49-74.32,15.49c-32.63,0-60.16-9-82.47-27.01l-3.31-2.77l-2.52-2.27c-21.39-20.1-32.01-51.44-32.01-93.78
		c0-45.22,11.28-78.16,34.01-98.64C680.11,349.32,708.77,339.15,743.36,339.15L743.36,339.15z"/>
	<polygon class="st0" points="292.04,345.81 292.52,589.39 235.95,589.39 235.95,345.81 292.04,345.81 	"/>
	<path class="st0" d="M471.54,339.15c33.91,0,59.13,7.17,75.6,21.71c16.56,14.63,24.78,37.19,24.78,67.51v161.02h-56.09V435.04
		c0-31.47-17.33-46.8-53.31-46.8c-15.03,0-29.5,2.13-43.39,6.4l-5.18,1.7v193.05h-56.1v-224.3l1.71-0.88
		c14.47-7.4,32.02-13.42,52.69-18.1l6.85-1.46C437.27,340.98,454.74,339.15,471.54,339.15L471.54,339.15z"/>
	<path class="st0" d="M1064.46,371.82c-19.95-22.13-49.56-33.14-88.67-33.14c-77.72,0-117,43.15-117,128.2
		c0,40.18,9,71.36,27.1,93.43l2.41,2.83c19.77,22.28,49.18,33.38,87.97,33.38c37.53,0,66.68-11.26,87.23-33.84
		c20.5-22.52,30.69-54.48,30.69-95.79C1094.2,425.58,1084.32,393.85,1064.46,371.82z M975.8,547.92c-21.51,0-36.91-6.79-46.54-20.32
		c-9.85-13.83-14.83-34.04-14.83-60.71c0-26.66,4.83-46.74,14.37-60.24c9.33-13.2,24.87-19.85,47.01-19.85
		c21.84,0,37.52,6.52,47.31,19.46c9.96,13.18,15.02,33.37,15.02,60.63C1038.12,521.42,1017.51,547.92,975.8,547.92z"/>
	<path class="st0" d="M1303.77,244.52v105.66c-7.95-3.5-16.74-6.21-26.37-8.14c-11.39-2.24-21.48-3.36-30.26-3.36
		c-37.55,0-66.07,11.11-85.39,33.41c-19.2,22.22-28.76,52.88-28.76,91.93c0,48.7,11.18,83.08,33.79,102.96
		c22.44,19.7,51,29.54,85.58,29.54c17.06,0,33.61-2.09,49.65-6.27c16.24-4.24,29.78-10.86,40.59-19.89
		c11.13-9.3,16.78-20.89,16.78-34.52V244.52H1303.77z M1303.77,531.08l-0.08,1c-0.61,3.65-4.64,6.98-12.76,9.83
		c-9.56,3.36-21.47,5.04-35.73,5.04c-24.37,0-41.07-7.1-50.52-21.21c-9.74-14.47-14.66-34.71-14.66-60.77
		c0-51.94,21.19-77.22,64.24-77.22c8.55,0,17.39,1.16,26.5,3.48c6.97,1.77,13.46,4.15,19.47,7.13l3.55,1.86V531.08z"/>
	<path class="st0" d="M1634.52,472.69c-0.43-41.04-9.06-73.33-25.96-96.81c-17.86-24.81-45.95-37.2-83.9-37.2
		c-35.97,0-64.03,11.19-83.94,33.62c-19.86,22.36-29.73,54.4-29.73,96.01c0,40.69,10.46,72.31,31.45,94.65
		c21.02,22.38,49.91,33.55,86.49,33.55c32.4,0,61.11-5.46,86.17-16.43l1.88-0.82v-54.01l-4.67,2.62
		c-9.94,5.58-21.43,10.17-34.4,13.72c-12.96,3.58-26.59,5.36-40.9,5.36c-21.7,0-38.21-5.82-49.74-17.39
		c-11.01-11.04-17.51-27.02-19.46-48.11h166.7L1634.52,472.69z M1468.98,438.06l0.63-3.67c3.09-16.76,8.59-28.77,16.39-36.07
		c8.85-8.29,21.2-12.45,37.23-12.45c16.93,0,29.57,4.39,38.08,13.07c7.51,7.68,12.61,19.43,15.22,35.36l0.56,3.75H1468.98z"/>
	<polygon class="st0" points="293.94,261.15 293.94,312.62 234.52,312.62 234.52,261.15 293.94,261.15 	"/>
</g>
</svg>
