<svg width="24" height="24" viewBox="0 0 24 24" fill="none" xmlns="http://www.w3.org/2000/svg">
<g clip-path="url(#clip0_259_1781)">
<path d="M3.08161 0.00195312H20.9198C22.6146 0.00195312 24 1.38786 24 3.08258V20.9208C24 22.6151 22.6146 24 20.9198 24H3.08161C1.38689 24 0 22.615 0 20.9208V3.08258C0 1.38786 1.38689 0.00195312 3.08161 0.00195312ZM17.4837 2.66731C16.8886 2.66731 16.4032 3.15458 16.4032 3.74933V6.33444C16.4032 6.92938 16.8886 7.41556 17.4837 7.41556H20.1959C20.79 7.41556 21.2764 6.92942 21.2764 6.33444V3.74928C21.2764 3.15458 20.79 2.66727 20.1959 2.66727C20.1959 2.66731 17.4837 2.66731 17.4837 2.66731ZM21.2867 10.1504H19.1751C19.3753 10.8044 19.4839 11.4941 19.4839 12.2111C19.4839 16.2017 16.1426 19.4383 12.0226 19.4383C7.90364 19.4383 4.56225 16.2017 4.56225 12.2111C4.56225 11.4941 4.67184 10.8044 4.87111 10.1504H2.66798V20.2889C2.66798 20.814 3.0967 21.2411 3.62128 21.2411H20.3339C20.8589 21.2411 21.2867 20.814 21.2867 20.2889V10.1504ZM12.0226 7.2792C9.36183 7.2792 7.20342 9.36945 7.20342 11.9503C7.20342 14.5284 9.36183 16.6203 12.0226 16.6203C14.6849 16.6203 16.8434 14.5284 16.8434 11.9503C16.8434 9.36936 14.6849 7.2792 12.0226 7.2792Z" fill="white"/>
</g>
<defs>
<clipPath id="clip0_259_1781">
<rect width="24" height="24" fill="white"/>
</clipPath>
</defs>
</svg>
