<svg width="24" height="24" viewBox="0 0 24 24" fill="none" xmlns="http://www.w3.org/2000/svg">
<g clip-path="url(#clip0_259_1776)">
<path d="M23.4561 4.44347C23.0791 4.6107 22.6915 4.75183 22.2954 4.86641C22.7643 4.33609 23.1218 3.71209 23.3401 3.02925C23.389 2.87619 23.3383 2.70866 23.2125 2.60856C23.0869 2.50837 22.9123 2.49637 22.7739 2.57836C21.9328 3.07725 21.0253 3.43578 20.0737 3.64543C19.1152 2.70881 17.8133 2.17578 16.4674 2.17578C13.6265 2.17578 11.3152 4.48698 11.3152 7.32781C11.3152 7.55155 11.3294 7.77405 11.3574 7.99346C7.83215 7.68394 4.55475 5.95121 2.30417 3.19052C2.22396 3.09212 2.1004 3.03908 1.9739 3.04923C1.84732 3.05914 1.73359 3.13052 1.66964 3.24022C1.21318 4.02347 0.971862 4.91929 0.971862 5.83075C0.971862 7.07217 1.41509 8.25003 2.19803 9.17039C1.95996 9.08794 1.72895 8.98489 1.50846 8.86249C1.39008 8.79661 1.24562 8.79761 1.12802 8.86505C1.01034 8.93248 0.936558 9.0565 0.933462 9.19207C0.93292 9.2149 0.93292 9.23774 0.93292 9.26089C0.93292 11.1139 1.93024 12.7822 3.45501 13.6915C3.32402 13.6784 3.1931 13.6595 3.06304 13.6346C2.92895 13.609 2.79106 13.656 2.70064 13.7583C2.61006 13.8605 2.58009 14.0029 2.62182 14.133C3.18621 15.895 4.63929 17.1911 6.39594 17.5863C4.93898 18.4988 3.27284 18.9768 1.52378 18.9768C1.15883 18.9768 0.791784 18.9553 0.432558 18.9128C0.254107 18.8916 0.0834745 18.997 0.0227003 19.1667C-0.0380739 19.3365 0.026339 19.5258 0.178158 19.6231C2.4251 21.0638 5.02322 21.8253 7.69147 21.8253C12.9369 21.8253 16.2184 19.3517 18.0474 17.2767C20.3282 14.6892 21.6362 11.2644 21.6362 7.8805C21.6362 7.73914 21.6341 7.59637 21.6297 7.45408C22.5296 6.77612 23.3043 5.95563 23.9348 5.01258C24.0305 4.86936 24.0201 4.68007 23.9092 4.54822C23.7984 4.4163 23.6138 4.37364 23.4561 4.44347Z" fill="white"/>
</g>
<defs>
<clipPath id="clip0_259_1776">
<rect width="24" height="24" fill="white"/>
</clipPath>
</defs>
</svg>
