<svg width="24" height="24" viewBox="0 0 24 24" fill="none" xmlns="http://www.w3.org/2000/svg">
<path fill-rule="evenodd" clip-rule="evenodd" d="M16.3785 17.5098C15.0731 18.5668 13.4104 19.1999 11.5998 19.1999C7.40251 19.1999 4 15.7973 4 11.5998C4 7.40251 7.40258 4 11.5998 4C15.7974 4 19.1999 7.40258 19.1999 11.5998C19.1999 13.4104 18.5668 15.0729 17.5098 16.3785L19.7656 18.6341C20.0779 18.9466 20.0779 19.4531 19.7656 19.7656C19.4531 20.0779 18.9466 20.0779 18.6342 19.7656L16.3785 17.5098ZM5.59977 11.5997C5.59977 8.28602 8.28613 5.59967 11.5998 5.59967C14.9134 5.59967 17.5998 8.28602 17.5998 11.5997C17.5998 13.21 16.9653 14.6723 15.9329 15.75C15.8984 15.7749 15.8653 15.8029 15.8342 15.8341C15.803 15.8651 15.775 15.8982 15.7501 15.9328C14.6724 16.9652 13.2101 17.5996 11.5998 17.5996C8.28616 17.5996 5.59981 14.9133 5.59981 11.5996L5.59977 11.5997Z" fill="white"/>
</svg>
