<svg width="16" height="16" viewBox="0 0 16 16" fill="none" xmlns="http://www.w3.org/2000/svg">
<path fill-rule="evenodd" clip-rule="evenodd" d="M12.3785 13.5098C11.0731 14.5668 9.4104 15.1999 7.59977 15.1999C3.40251 15.1999 0 11.7973 0 7.59977C0 3.40251 3.40258 0 7.59977 0C11.7974 0 15.1999 3.40258 15.1999 7.59977C15.1999 9.41037 14.5668 11.0729 13.5098 12.3785L15.7656 14.6341C16.0779 14.9466 16.0779 15.4531 15.7656 15.7656C15.4531 16.0779 14.9466 16.0779 14.6342 15.7656L12.3785 13.5098ZM1.59977 7.59967C1.59977 4.28602 4.28613 1.59967 7.59977 1.59967C10.9134 1.59967 13.5998 4.28602 13.5998 7.59967C13.5998 9.21003 12.9653 10.6723 11.9329 11.75C11.8984 11.7749 11.8653 11.8029 11.8342 11.8341C11.803 11.8651 11.775 11.8982 11.7501 11.9328C10.6724 12.9652 9.21014 13.5996 7.59981 13.5996C4.28616 13.5996 1.59981 10.9133 1.59981 7.59964L1.59977 7.59967Z" fill="white"/>
</svg>
