<svg width="64" height="64" viewBox="0 0 64 64" fill="none" xmlns="http://www.w3.org/2000/svg">
<g clip-path="url(#clip0_1013_31672)">
<path d="M12.0596 51.9404C17.3481 57.2289 24.5209 60.2 32 60.2C39.4791 60.2 46.6519 57.2289 51.9404 51.9404C57.2289 46.6519 60.2 39.4791 60.2 32C60.2 24.5209 57.2289 17.3481 51.9404 12.0596C46.6519 6.77106 39.4791 3.8 32 3.8C24.5209 3.8 17.3481 6.77106 12.0596 12.0596C6.77106 17.3481 3.8 24.5209 3.8 32C3.8 39.4791 6.77106 46.6519 12.0596 51.9404ZM54.486 54.486C48.5223 60.4497 40.4339 63.8 32 63.8C23.5661 63.8 15.4777 60.4497 9.514 54.486C3.55035 48.5223 0.2 40.4339 0.2 32C0.2 23.5661 3.55035 15.4777 9.514 9.514C15.4777 3.55035 23.5661 0.2 32 0.2C40.4339 0.2 48.5223 3.55035 54.486 9.514C60.4497 15.4777 63.8 23.5661 63.8 32C63.8 40.4339 60.4497 48.5223 54.486 54.486Z" fill="#9DB8DC" stroke="#062659" stroke-width="0.4"/>
<path d="M17.7164 46.2836C21.5047 50.0718 26.6426 52.2 32 52.2C37.3574 52.2 42.4953 50.0718 46.2836 46.2836C50.0718 42.4953 52.2 37.3574 52.2 32C52.2 26.6426 50.0718 21.5047 46.2836 17.7164C42.4953 13.9282 37.3574 11.8 32 11.8C26.6426 11.8 21.5047 13.9282 17.7164 17.7164C13.9282 21.5047 11.8 26.6426 11.8 32C11.8 37.3574 13.9282 42.4953 17.7164 46.2836ZM41.1079 53.9883C38.2203 55.1844 35.1255 55.8 32 55.8C25.6878 55.8 19.6342 53.2925 15.1709 48.8291C10.7075 44.3658 8.2 38.3122 8.2 32C8.2 25.6878 10.7075 19.6342 15.1709 15.1709C19.6342 10.7075 25.6878 8.2 32 8.2C35.1255 8.2 38.2203 8.8156 41.1079 10.0117C43.9954 11.2077 46.6191 12.9608 48.8291 15.1709C51.0392 17.3809 52.7923 20.0046 53.9883 22.8921C55.1844 25.7797 55.8 28.8745 55.8 32C55.8 35.1255 55.1844 38.2203 53.9883 41.1079C52.7923 43.9954 51.0392 46.6191 48.8291 48.8291C46.6191 51.0392 43.9954 52.7923 41.1079 53.9883Z" fill="#9DB8DC" stroke="#062659" stroke-width="0.4"/>
<path d="M23.3733 40.6267C25.6612 42.9146 28.7644 44.2 32 44.2C35.2356 44.2 38.3388 42.9146 40.6267 40.6267C42.9146 38.3388 44.2 35.2356 44.2 32C44.2 28.7644 42.9146 25.6612 40.6267 23.3733C38.3388 21.0854 35.2356 19.8 32 19.8C28.7644 19.8 25.6612 21.0854 23.3733 23.3733C21.0854 25.6612 19.8 28.7644 19.8 32C19.8 35.2356 21.0854 38.3388 23.3733 40.6267ZM43.1723 43.1723C40.2092 46.1354 36.1904 47.8 32 47.8C27.8096 47.8 23.7908 46.1354 20.8277 43.1723C17.8646 40.2092 16.2 36.1904 16.2 32C16.2 27.8096 17.8646 23.7908 20.8277 20.8277C23.7908 17.8646 27.8096 16.2 32 16.2C36.1904 16.2 40.2092 17.8646 43.1723 20.8277C46.1354 23.7908 47.8 27.8096 47.8 32C47.8 36.1904 46.1354 40.2092 43.1723 43.1723Z" fill="#9DB8DC" stroke="#062659" stroke-width="0.4"/>
<path d="M38 32C38 33.5913 37.3679 35.1174 36.2426 36.2426C35.1174 37.3679 33.5913 38 32 38C30.4087 38 28.8826 37.3679 27.7574 36.2426C26.6321 35.1174 26 33.5913 26 32C26 30.4087 26.6321 28.8826 27.7574 27.7574C28.8826 26.6321 30.4087 26 32 26C33.5913 26 35.1174 26.6321 36.2426 27.7574C37.3679 28.8826 38 30.4087 38 32Z" fill="#FFA028"/>
</g>
<defs>
<clipPath id="clip0_1013_31672">
<rect width="64" height="64" fill="white"/>
</clipPath>
</defs>
</svg>
