<svg width="64" height="64" viewBox="0 0 64 64" fill="none" xmlns="http://www.w3.org/2000/svg">
<g clip-path="url(#clip0_1013_31633)">
<path d="M4.33372 60.6452H4.13372V60.4452V56.2753V56.0753H4.33372H15.256H15.456V56.2753V60.4452V60.6452H15.256H4.33372ZM4.33372 52.9227H4.13372V52.7227V48.5529V48.3529H4.33372H15.256H15.456V48.5529V52.7227V52.9227H15.256H4.33372ZM4.33372 45.2003H4.13372V45.0003V40.8304V40.6304H4.33372H15.256H15.456V40.8304V45.0003V45.2003H15.256H4.33372ZM4.33372 37.4652H4.13372V37.2652V33.0954V32.8954H4.33372H15.256H15.456V33.0954V37.2652V37.4652H15.256H4.33372ZM4.33372 29.7428H4.13372V29.5428V25.3729V25.1729H4.33372H15.256H15.456V25.3729V29.5428V29.7428H15.256H4.33372ZM17.0323 22.0203H2.55742C1.68525 22.0203 0.981134 22.7244 0.981134 23.5966V62.2215C0.981134 63.0936 1.68525 63.7978 2.55742 63.7978H17.0323C17.9045 63.7978 18.6086 63.0936 18.6086 62.2215V23.5966C18.6086 22.7244 17.9045 22.0203 17.0323 22.0203Z" fill="#9DB8DC" stroke="#062557" stroke-width="0.4"/>
<path d="M23.1911 39.052L23.1911 39.052V39.0545V62.2093C23.1911 63.0815 23.8952 63.7856 24.7674 63.7856H39.2423C40.1144 63.7856 40.8186 63.0815 40.8186 62.2093V39.0419C40.8186 38.1697 40.1144 37.4656 39.2423 37.4656H24.7548C23.884 37.4656 23.1799 38.1804 23.1911 39.052ZM26.5311 60.6456H26.3311V60.4456V56.2757V56.0757H26.5311H37.4534H37.6534V56.2757V60.4456V60.6456H37.4534H26.5311ZM26.5311 52.9231H26.3311V52.7231V48.5533V48.3533H26.5311H37.4534H37.6534V48.5533V52.7231V52.9231H37.4534H26.5311ZM26.5311 45.2007H26.3311V45.0007V40.8308V40.6308H26.5311H37.4534H37.6534V40.8308V45.0007V45.2007H37.4534H26.5311Z" fill="#9DB8DC" stroke="#062557" stroke-width="0.4"/>
<path d="M48.7409 60.6451H48.5409V60.4451V56.2752V56.0752H48.7409H59.6632H59.8632V56.2752V60.4451V60.6451H59.6632H48.7409ZM61.4395 52.9227H46.9647C46.0925 52.9227 45.3884 53.6268 45.3884 54.4989V62.2214C45.3884 63.0936 46.0925 63.7977 46.9647 63.7977H61.4395C62.3117 63.7977 63.0158 63.0936 63.0158 62.2214V54.4989C63.0158 53.6268 62.3117 52.9227 61.4395 52.9227Z" fill="#FFA028" stroke="#062557" stroke-width="0.4"/>
<path d="M58.0694 37.0346L58.4102 37.3759H57.9279H52.6998C51.8276 37.3759 51.1235 38.0801 51.1235 38.9522C51.1235 39.8244 51.8276 40.5285 52.6998 40.5285H62.2237C63.0959 40.5285 63.8 39.8244 63.8 38.9522V29.4283C63.8 28.5561 63.0959 27.852 62.2237 27.852C61.3515 27.852 60.6474 28.5561 60.6474 29.4283V34.6564V35.1392L60.306 34.7978L51.1474 25.6392C50.5578 25.0496 49.5003 25.0496 48.9107 25.6392L44.1865 30.3634L44.0451 30.5048L43.9037 30.3634L29.0283 15.488C29.0279 15.4876 29.0274 15.4871 29.027 15.4867C28.7227 15.1944 28.319 15.0274 27.9073 15.0274C27.481 15.0274 27.0785 15.1957 26.7889 15.4854L22.4427 19.8316L22.3012 19.9731L22.1598 19.8316L2.8997 0.558834C2.89939 0.558537 2.89909 0.558239 2.89878 0.557941C2.70888 0.373856 2.29426 0.223801 1.8278 0.204361C1.3636 0.18502 0.920356 0.298138 0.661615 0.556427C0.045189 1.18485 0.0472461 2.17984 0.661081 2.79368L21.1829 23.3155C21.7725 23.9051 22.83 23.9051 23.4196 23.3155L27.7659 18.9693L27.9073 18.8278L28.0487 18.9693L42.9267 33.8473C43.5163 34.4368 44.5739 34.4368 45.1634 33.8473L49.8876 29.1231L50.0291 28.9816L50.1706 29.1232L58.0694 37.0346Z" fill="#9DB8DC" stroke="#062557" stroke-width="0.4"/>
</g>
<defs>
<clipPath id="clip0_1013_31633">
<rect width="64" height="64" fill="white" transform="matrix(-1 0 0 1 64 0)"/>
</clipPath>
</defs>
</svg>
