<svg width="64" height="64" viewBox="0 0 64 64" fill="none" xmlns="http://www.w3.org/2000/svg">
<g clip-path="url(#clip0_1013_31650)">
<path d="M49.5542 6.97415L49.5525 6.97575L48.1265 8.29224L48.1265 8.29229C47.8319 8.56408 47.6586 8.94276 47.6452 9.34344L47.6452 9.3435C47.6318 9.74398 47.7796 10.1334 48.0552 10.4243C48.0552 10.4243 48.0552 10.4244 48.0552 10.4244L51.6669 14.2357L51.8041 14.3805L51.6596 14.5181L50.2319 15.8776L50.0908 16.0119L49.9528 15.8745C45.1991 11.1403 38.7513 8.45504 31.9994 8.45504C25.0057 8.45504 18.6628 11.292 14.059 15.8759L13.9214 16.0129L13.7804 15.8793L12.3417 14.5161L12.1966 14.3785L12.3341 14.2333L15.9436 10.4244C15.9436 10.4244 15.9436 10.4243 15.9436 10.4243C16.2192 10.1334 16.367 9.74408 16.3537 9.34344L16.5535 9.33679L16.3537 9.34344C16.3403 8.94285 16.167 8.56435 15.8724 8.29223C15.8724 8.29222 15.8724 8.29222 15.8723 8.29221L14.4466 6.97573L14.4449 6.97416L14.4449 6.97415C12.8703 5.48598 10.8116 4.6668 8.64543 4.6668C6.33685 4.6668 4.10187 5.62772 2.51441 7.30282L49.5542 6.97415ZM49.5542 6.97415C51.1287 5.4861 53.1875 4.66692 55.3535 4.66692C57.662 4.66692 59.8971 5.62786 61.4844 7.30298L61.6296 7.16542M49.5542 6.97415L61.6296 7.16542M61.6296 7.16542L61.4844 7.30299C63.0364 8.94061 63.8572 11.0833 63.797 13.3385C63.7363 15.594 62.8015 17.6897 61.1638 19.2415L61.1634 19.2418L61.1496 19.2547L61.1493 19.255L59.7163 20.5783C59.4282 20.8444 59.0641 20.9759 58.7 20.9759C58.3022 20.9759 57.9062 20.8188 57.6118 20.508L57.4666 20.6455L57.6118 20.5079L54.0044 16.7013L53.8665 16.5558L53.7213 16.6941L51.1574 19.1356L51.1519 19.1409L51.1467 19.1466C51.1052 19.1927 51.0633 19.2354 51.019 19.2741L51.0188 19.2742M61.6296 7.16542L51.0188 19.2742M2.83842 19.2436L2.8384 19.2437C2.84175 19.2469 2.84194 19.2471 2.84229 19.2473C2.84274 19.2477 2.84346 19.2482 2.85167 19.256C2.85204 19.2564 2.85243 19.2568 2.85284 19.2571L4.284 20.5786L4.14832 20.7255L4.284 20.5786C4.57198 20.8445 4.93623 20.976 5.30019 20.976C5.69792 20.976 6.09392 20.819 6.38836 20.5081L6.38839 20.5081L9.99776 16.6991L10.1353 16.5539L10.2805 16.6915L11.8105 18.1413L11.9415 18.2655L11.8314 18.4085C8.52791 22.7009 6.56031 28.0715 6.56031 33.894C6.56031 39.663 8.4917 44.9882 11.7404 49.2608L11.849 49.4036L11.7187 49.527L9.3275 51.7929C8.72668 52.3623 8.70121 53.3107 9.2706 53.9115L9.12543 54.0491L9.27061 53.9115C9.56531 54.2225 9.96133 54.3794 10.3587 54.3794C10.7289 54.3794 11.0994 54.2433 11.3892 53.9686L13.675 51.8027L13.8168 51.6683L13.9545 51.8069C18.5664 56.4525 24.9525 59.3333 31.9996 59.3333C39.0467 59.3333 45.4328 56.4525 50.0448 51.8069L50.1825 51.6683L50.3243 51.8027L52.6102 53.9688L52.6102 53.9688C52.9001 54.2435 53.2703 54.3796 53.6406 54.3796C54.0379 54.3796 54.434 54.2227 54.7288 53.9116C55.2982 53.3108 55.2727 52.3623 54.6717 51.793L54.6717 51.793L52.2804 49.5271L52.1502 49.4037L52.2588 49.2609C55.5076 44.9884 57.4388 39.6631 57.4388 33.8941C57.4388 33.0665 56.7678 32.3955 55.9402 32.3955C55.1127 32.3955 54.4416 33.0665 54.4416 33.8941C54.4416 46.2689 44.3743 56.3362 31.9995 56.3362C19.6247 56.3362 9.55768 46.2689 9.55768 33.8941C9.55768 21.5193 19.6251 11.4522 31.9999 11.4522C38.4754 11.4522 44.6354 14.2506 48.9015 19.1295C48.9018 19.1298 48.9022 19.1302 48.9027 19.1306L48.9098 19.1377C48.9129 19.1409 48.917 19.1451 48.9215 19.1502L48.7719 19.2829M2.83842 19.2436L49.3171 19.4609L49.3103 19.4573L49.3071 19.4555C49.3067 19.4553 49.3064 19.4551 49.306 19.4549C49.2682 19.4337 49.2314 19.4111 49.1956 19.3871L49.194 19.386C49.1862 19.3809 49.1781 19.3753 49.1683 19.3685C49.1391 19.3479 49.1105 19.3259 49.0821 19.3025L49.0802 19.3009C49.0665 19.2899 49.053 19.2785 49.0397 19.2668C49.0193 19.2488 48.9988 19.2291 48.9767 19.2071L48.9763 19.2068C48.9676 19.1982 48.9584 19.1898 48.9532 19.1851L48.9511 19.1832L48.9451 19.1776C48.9438 19.1764 48.9433 19.1759 48.9434 19.176L48.9429 19.1755C48.9428 19.1753 48.9418 19.1742 48.9387 19.1705L48.9375 19.169C48.9341 19.1649 48.9275 19.1569 48.9206 19.1492L48.7719 19.2829M2.83842 19.2436L2.83627 19.2416M2.83842 19.2436L2.83627 19.2416M48.7719 19.2829C48.7757 19.2872 48.7794 19.2916 48.783 19.296C48.7878 19.3018 48.7925 19.3075 48.7977 19.313M48.7719 19.2829C48.7689 19.2796 48.7658 19.2765 48.7627 19.2735C48.7595 19.2704 48.7564 19.2673 48.7534 19.2639C44.5251 14.4267 38.4189 11.6522 31.9999 11.6522C19.7355 11.6522 9.75768 21.6298 9.75768 33.8941C9.75768 46.1585 19.7352 56.1362 31.9995 56.1362C44.2639 56.1362 54.2416 46.1585 54.2416 33.8941C54.2416 32.956 55.0022 32.1955 55.9402 32.1955C56.8782 32.1955 57.6388 32.956 57.6388 33.8941L48.7977 19.313M48.7977 19.313C48.8046 19.3203 48.812 19.3271 48.8194 19.3338C48.8249 19.3387 48.8303 19.3437 48.8356 19.3489L48.7977 19.313ZM2.83627 19.2416C1.19852 17.6896 0.263704 15.594 0.203129 13.3387C0.142553 11.0833 0.963344 8.94062 2.51437 7.30286L2.83627 19.2416ZM51.0188 19.2742C50.534 19.698 49.8532 19.7523 49.3174 19.4611L51.0188 19.2742ZM5.08512 17.2387L5.23017 17.3727L5.36599 17.2293L12.5848 9.61148L12.7243 9.46435L12.5753 9.32691L12.4067 9.17135C12.4065 9.17125 12.4064 9.17114 12.4063 9.17104C12.4012 9.16627 12.3989 9.16423 12.3975 9.16294C12.3962 9.16172 12.3956 9.16119 12.394 9.15966L12.394 9.15964L12.3919 9.15763C11.3757 8.19455 10.045 7.66416 8.64593 7.66416C7.13493 7.66416 5.72943 8.26847 4.69065 9.36459L4.83582 9.50216L4.69065 9.36459C3.69005 10.4205 3.15996 11.8037 3.19914 13.258C3.23819 14.7087 3.83888 16.0586 4.88997 17.0584L4.88996 17.0584L4.89212 17.0604L5.08512 17.2387ZM59.1073 17.0607L59.1094 17.0587C60.1606 16.0587 60.7612 14.7089 60.8004 13.2582C60.8393 11.8039 60.3095 10.4206 59.3088 9.36447L59.1636 9.50204L59.3088 9.36446C58.27 8.26834 56.8643 7.66404 55.3535 7.66404C53.9546 7.66404 52.6243 8.19455 51.6082 9.15707C51.6081 9.15721 51.6079 9.15734 51.6078 9.15748L51.5934 9.17088L51.5911 9.17304L51.4244 9.327L51.2756 9.46445L51.4149 9.61148L58.6337 17.2293L58.7695 17.3727L58.9145 17.2387L59.1073 17.0607Z" fill="#9DB8DC" stroke="#062556" stroke-width="0.4"/>
<path d="M33.7101 19.3239L33.7218 19.3253C33.8317 19.3383 33.9424 19.352 34.0528 19.3675L34.0529 19.3675C34.0775 19.371 34.1037 19.3745 34.1308 19.3781C34.1812 19.3849 34.2344 19.392 34.2846 19.3998L34.2848 19.3999C34.4859 19.4314 34.6852 19.4674 34.883 19.5069L34.8438 19.7031M33.7101 19.3239L36.4797 19.9233C36.4116 19.9011 36.3412 19.878 36.2703 19.8565L36.2703 19.8565C36.1252 19.8123 35.9795 19.7719 35.8352 19.7327L35.8349 19.7326C35.8118 19.7264 35.7865 19.7193 35.7602 19.7119C35.7141 19.699 35.6648 19.6852 35.6187 19.6735C35.4014 19.6181 35.1819 19.5668 34.96 19.5211M33.7101 19.3239H33.6983H33.6982H33.4982V19.5239V32.1952V32.3952H33.6982H46.3692H46.5941L46.5678 32.1718C46.5546 32.0596 46.5407 31.9467 46.5247 31.8337L46.5247 31.8336C46.5213 31.8097 46.5179 31.784 46.5143 31.7575C46.5078 31.7094 46.501 31.6585 46.4936 31.6108L46.4935 31.6107C46.4612 31.4043 46.4244 31.1995 46.3835 30.9961L46.1874 31.0355M33.7101 19.3239L46.3267 31.8617C46.3229 31.8347 46.3193 31.8077 46.3156 31.7807C46.3094 31.7342 46.3031 31.6877 46.2959 31.6417C46.2641 31.4382 46.2278 31.2362 46.1874 31.0355M34.8438 19.7031L34.8821 19.5068C34.8839 19.5071 34.8892 19.5081 34.8965 19.5093C34.9148 19.5126 34.9452 19.518 34.96 19.5211M34.8438 19.7031C34.8546 19.7052 34.8654 19.707 34.8763 19.7089C34.8906 19.7114 34.905 19.7139 34.9192 19.7169M34.8438 19.7031C34.6485 19.6641 34.4518 19.6286 34.2537 19.5974L34.9192 19.7169M34.96 19.5211C34.9599 19.5211 34.9597 19.5211 34.9595 19.521L34.9192 19.7169M34.96 19.5211C34.9602 19.5212 34.9604 19.5212 34.9605 19.5212L34.9192 19.7169M37.797 20.4174C37.7263 20.3868 37.6548 20.3574 37.5853 20.329C37.5721 20.3235 37.559 20.3182 37.546 20.3128L37.5458 20.3128C37.4223 20.2621 37.2975 20.2125 37.1714 20.1649L37.1007 20.3519L37.1714 20.1648C37.0853 20.1323 36.999 20.1005 36.9122 20.0695L36.9121 20.0694C36.783 20.0234 36.653 19.9798 36.5235 19.9376L38.1822 20.5919L38.0975 20.7731L38.1822 20.5919M37.797 20.4174L37.7176 20.6009L37.797 20.4174C37.797 20.4174 37.797 20.4174 37.797 20.4174ZM37.797 20.4174C37.9274 20.4738 38.0556 20.5327 38.1822 20.5919M38.1822 20.5919C38.2054 20.6027 38.2301 20.6141 38.2555 20.6257M38.1822 20.5919L38.2555 20.6257M46.1874 31.0355L46.3835 30.9961C46.3822 30.9894 46.381 30.9823 46.3791 30.9715C46.3774 30.9617 46.3751 30.9485 46.3723 30.9348M46.1874 31.0355L46.3723 30.9348M46.3723 30.9348C46.3264 30.7118 46.2747 30.4915 46.2193 30.2735C46.2072 30.2261 46.1934 30.1766 46.1804 30.1302C46.1738 30.1067 46.1674 30.084 46.1616 30.0627C46.1616 30.0626 46.1616 30.0625 46.1615 30.0624L46.3723 30.9348ZM38.4042 20.6954L38.4042 20.6954C38.5736 20.778 38.7404 20.864 38.9052 20.9524L38.9057 20.9527C38.918 20.9593 38.9335 20.9675 38.95 20.9762C38.9752 20.9895 39.0029 21.0041 39.0256 21.0166C39.2056 21.1152 39.3828 21.2175 39.5576 21.3229L39.5578 21.3229C39.6042 21.3509 39.6521 21.3814 39.6976 21.4103C39.7216 21.4255 39.7449 21.4404 39.7669 21.4541L39.767 21.4542C39.8828 21.5268 39.9998 21.6007 40.1156 21.6778L40.1157 21.6779C40.1772 21.719 40.2384 21.7614 40.2977 21.8025C40.3133 21.8133 40.3288 21.8241 40.3441 21.8347L40.3444 21.8349C40.4493 21.9078 40.554 21.9818 40.658 22.058L40.658 22.0581C40.7348 22.1144 40.8108 22.1714 40.8862 22.2289L40.8863 22.229C40.9879 22.3065 41.0879 22.3855 41.1865 22.465C41.1865 22.465 41.1865 22.465 41.1866 22.4651L41.2121 22.4856C41.2753 22.5364 41.3402 22.5887 41.404 22.6421M38.4042 20.6954L41.8998 23.0754C41.8574 23.0365 41.8124 22.9971 41.7696 22.9597C41.7488 22.9414 41.7284 22.9236 41.7092 22.9066L41.7092 22.9066C41.6096 22.8184 41.5081 22.7292 41.404 22.6421M38.4042 20.6954C38.3556 20.6717 38.3042 20.6481 38.2555 20.6257M38.4042 20.6954L38.2555 20.6257M41.404 22.6421L41.2756 22.7954L41.4039 22.642C41.4039 22.6421 41.404 22.6421 41.404 22.6421ZM42.4368 23.5938L42.437 23.594C42.5656 23.7245 42.6931 23.8573 42.8178 23.9935M42.4368 23.5938L42.78 24.252C42.7988 24.2734 42.8175 24.2948 42.8363 24.316L42.986 24.1834C42.9689 24.1641 42.951 24.1437 42.9327 24.1228C42.8955 24.0803 42.8564 24.0356 42.8178 23.9935M42.4368 23.5938C42.3917 23.5482 42.3459 23.5021 42.2992 23.4562M42.4368 23.5938L42.2992 23.4562M42.8178 23.9935L42.6703 24.1285L42.8178 23.9934C42.8178 23.9934 42.8178 23.9934 42.8178 23.9935ZM44.8792 26.8713C44.7798 26.6899 44.6767 26.5111 44.5702 26.3346L44.5702 26.3346C44.5427 26.289 44.5126 26.2418 44.4842 26.197C44.4689 26.173 44.4541 26.1497 44.4404 26.1278L44.4402 26.1275C44.3673 26.0116 44.2929 25.8936 44.2154 25.7774C44.2154 25.7773 44.2153 25.7773 44.2153 25.7773L44.049 25.8883L44.9184 26.9449C44.9057 26.9208 44.8918 26.8943 44.8792 26.8713ZM44.8792 26.8713L44.7038 26.9674L44.8791 26.8711C44.8792 26.8712 44.8792 26.8713 44.8792 26.8713ZM45.7289 28.7228L45.7289 28.7229C45.761 28.8078 45.7927 28.8937 45.8232 28.9801L45.6347 29.0468M45.7289 28.7228L45.6347 29.0468M45.7289 28.7228C45.6808 28.5958 45.6309 28.47 45.5797 28.3452L45.7289 28.7228ZM45.6347 29.0468C45.6047 28.962 45.5736 28.8775 45.5418 28.7937L45.6347 29.0468ZM41.8999 23.0755L41.7646 23.2228L41.8999 23.0755ZM41.8999 23.0755C42.0359 23.2001 42.1686 23.3273 42.2992 23.4562M41.8999 23.0755L42.2992 23.4562M46.5678 35.6154L46.5941 35.392H46.3692H31.9997C31.1721 35.392 30.5011 34.7211 30.5011 33.8934V17.7221C30.5011 16.8944 31.1721 16.2234 31.9997 16.2234C41.7427 16.2234 49.6694 24.1504 49.6697 33.8932C49.6697 43.6361 41.743 51.563 31.9998 51.563C22.2567 51.563 14.3299 43.6361 14.3299 33.8932C14.3299 28.3321 16.8688 23.2078 21.2968 19.8324C21.9554 19.3309 22.8955 19.4576 23.3974 20.1158C23.899 20.7742 23.7722 21.7146 23.114 22.2164C19.4368 25.0191 17.3271 29.2762 17.3271 33.8933C17.3271 41.9838 23.909 48.5658 31.9997 48.5658C39.5078 48.5658 45.712 42.897 46.5678 35.6154ZM45.269 27.6403C45.2464 27.5909 45.2225 27.5388 45.1982 27.4892L45.5796 28.3451L45.5706 28.323C45.5403 28.2488 45.5091 28.1726 45.4764 28.097L45.4764 28.0969C45.4195 27.9654 45.3599 27.8359 45.3004 27.7084C45.2903 27.6866 45.2798 27.6638 45.269 27.6403Z" fill="#9DB8DC" stroke="#062557" stroke-width="0.4"/>
<path d="M30.4004 16V36H50.4004C50.4002 24.9542 41.4459 16 30.4004 16Z" fill="#FFA028"/>
</g>
<defs>
<clipPath id="clip0_1013_31650">
<rect width="64" height="64" fill="white"/>
</clipPath>
</defs>
</svg>
